<svg preserveAspectRatio="none" width="100%" height="100%" overflow="visible" style="display: block;" viewBox="0 0 480 480" fill="none" xmlns="http://www.w3.org/2000/svg">
<g id="Logo" clip-path="url(#clip0_0_6)">
<path id="Vector" d="M227.428 132.871C222.703 92.3848 217.715 49.6373 217.715 0H262.285C262.285 49.0798 257.321 91.7729 252.602 132.305C248.759 165.336 245.082 196.932 244.399 229.38C266.779 206.036 286.356 181.284 306.864 155.356C332.149 123.388 358.852 89.6334 393.948 54.5357L425.465 86.0525C390.76 120.757 357.056 147.433 325.061 172.759L325.031 172.782C298.969 193.414 274.038 213.149 250.62 235.601C282.948 234.918 314.293 231.26 347.126 227.429C387.613 222.703 430.363 217.715 480 217.715V262.285C430.922 262.285 388.229 257.318 347.699 252.602L347.669 252.6C314.645 248.758 283.058 245.083 250.62 244.399C273.948 266.762 298.687 286.331 324.599 306.824L324.64 306.859C356.609 332.147 390.365 358.847 425.465 393.948L393.948 425.465C359.243 390.761 332.568 357.06 307.246 325.067L307.186 324.984L307.135 324.918C286.53 298.897 266.819 274.006 244.399 250.62C245.082 283.068 248.759 314.664 252.602 347.695C257.321 388.228 262.285 430.92 262.285 480H217.715C217.715 430.363 222.703 387.616 227.428 347.129L227.437 347.063C231.264 314.252 234.918 282.926 235.601 250.62C213.181 274.006 193.47 298.897 172.865 324.918L172.814 324.984L172.754 325.067C147.432 357.06 120.757 390.761 86.0525 425.465L54.5357 393.948C89.6351 358.847 123.391 332.147 155.36 306.859L155.401 306.824C181.313 286.331 206.052 266.762 229.38 244.399C196.932 245.084 165.335 248.76 132.301 252.602C91.7712 257.318 49.0781 262.285 0 262.285V217.715C49.6373 217.715 92.3873 222.703 132.874 227.429C165.707 231.26 197.052 234.918 229.38 235.601C205.952 213.14 181.012 193.399 154.939 172.759C122.944 147.433 89.2399 120.757 54.5357 86.0525L86.0525 54.5357C121.148 89.6334 147.851 123.388 173.136 155.356C193.644 181.283 213.221 206.035 235.601 229.378C234.918 197.072 231.264 165.748 227.437 132.937L227.428 132.871Z" fill="var(--fill-0, #99A0AE)" fill-opacity="0.1"/>
</g>
<defs>
<clipPath id="clip0_0_6">
<rect width="480" height="480" fill="white"/>
</clipPath>
</defs>
</svg>
