<svg preserveAspectRatio="none" width="100%" height="100%" overflow="visible" style="display: block;" viewBox="0 0 11.0039 12.0076" fill="none" xmlns="http://www.w3.org/2000/svg">
<path id="Vector" d="M10.9259 11.2319L7.01341 5.08313L10.874 0.83625C10.9613 0.737828 11.0063 0.608956 10.9993 0.477576C10.9922 0.346196 10.9336 0.222897 10.8363 0.13441C10.7389 0.0459229 10.6106 -0.0006199 10.4791 0.00487238C10.3477 0.0103647 10.2237 0.0674492 10.134 0.16375L6.45653 4.20875L3.92591 0.231875C3.88078 0.160847 3.81846 0.102357 3.74471 0.0618237C3.67097 0.0212907 3.58818 2.60814e-05 3.50403 5.91468e-08H0.504032C0.414383 -4.35397e-05 0.32637 0.0240171 0.249212 0.0696624C0.172053 0.115308 0.108585 0.180859 0.0654552 0.259451C0.0223252 0.338044 0.0011191 0.426787 0.00405743 0.516388C0.00699575 0.605989 0.0339704 0.693152 0.0821569 0.76875L3.99466 6.91687L0.134032 11.1669C0.0889487 11.2153 0.0539257 11.2722 0.030993 11.3343C0.00806032 11.3963 -0.00232617 11.4623 0.000435851 11.5284C0.00319787 11.5945 0.0190535 11.6594 0.0470834 11.7194C0.0751133 11.7793 0.11476 11.8331 0.163726 11.8776C0.212692 11.9221 0.270003 11.9564 0.332338 11.9786C0.394672 12.0008 0.46079 12.0104 0.52686 12.0068C0.59293 12.0033 0.657638 11.9867 0.717232 11.9579C0.776826 11.9292 0.830123 11.8889 0.874032 11.8394L4.55153 7.79438L7.08216 11.7712C7.12765 11.8417 7.19013 11.8996 7.26386 11.9395C7.33758 11.9795 7.42017 12.0003 7.50403 12H10.504C10.5936 12 10.6815 11.9759 10.7586 11.9303C10.8356 11.8847 10.899 11.8192 10.9421 11.7407C10.9852 11.6622 11.0065 11.5736 11.0036 11.4841C11.0008 11.3946 10.9739 11.3075 10.9259 11.2319ZM7.77841 11L1.41466 1H3.22716L9.59341 11H7.77841Z" fill="var(--fill-0, #0E121B)"/>
</svg>
