<svg preserveAspectRatio="none" width="100%" height="100%" overflow="visible" style="display: block;" viewBox="0 0 13 13.5" fill="none" xmlns="http://www.w3.org/2000/svg">
<path id="Vector" d="M12.5 3.5C11.7046 3.49917 10.942 3.18284 10.3796 2.62041C9.81716 2.05798 9.50083 1.2954 9.5 0.5C9.5 0.367392 9.44732 0.240215 9.35355 0.146447C9.25979 0.0526784 9.13261 0 9 0H6.5C6.36739 0 6.24021 0.0526784 6.14645 0.146447C6.05268 0.240215 6 0.367392 6 0.5V8.75C5.9999 8.97368 5.93978 9.19323 5.82591 9.38576C5.71205 9.57828 5.54861 9.73673 5.35264 9.84456C5.15667 9.9524 4.93536 10.0057 4.71179 9.99884C4.48822 9.99201 4.27057 9.9253 4.08156 9.80569C3.89255 9.68608 3.7391 9.51794 3.63721 9.31882C3.53533 9.11969 3.48873 8.89688 3.5023 8.67361C3.51587 8.45035 3.58909 8.23481 3.71434 8.04949C3.83959 7.86417 4.01227 7.71585 4.21438 7.62C4.29987 7.57943 4.37209 7.51543 4.42265 7.43544C4.47321 7.35545 4.50003 7.26275 4.5 7.16813V4.5C4.50003 4.42691 4.48404 4.35471 4.45315 4.28847C4.42226 4.22223 4.37722 4.16356 4.32121 4.11661C4.2652 4.06966 4.19958 4.03555 4.12896 4.0167C4.05835 3.99785 3.98446 3.99471 3.9125 4.0075C1.68187 4.405 0 6.44375 0 8.75C0 10.0098 0.500445 11.218 1.39124 12.1088C2.28204 12.9996 3.49022 13.5 4.75 13.5C6.00978 13.5 7.21796 12.9996 8.10876 12.1088C8.99955 11.218 9.5 10.0098 9.5 8.75V6.26813C10.426 6.75128 11.4555 7.00243 12.5 7C12.6326 7 12.7598 6.94732 12.8536 6.85355C12.9473 6.75979 13 6.63261 13 6.5V4C13 3.86739 12.9473 3.74021 12.8536 3.64645C12.7598 3.55268 12.6326 3.5 12.5 3.5ZM12 5.9775C11.0229 5.89092 10.0873 5.54219 9.29187 4.96812C9.21711 4.91437 9.12896 4.88231 9.03714 4.87547C8.94532 4.86863 8.85339 4.88728 8.77149 4.92936C8.68959 4.97144 8.6209 5.03532 8.573 5.11395C8.52509 5.19259 8.49983 5.28292 8.5 5.375V8.75C8.5 9.74456 8.10491 10.6984 7.40165 11.4017C6.69839 12.1049 5.74456 12.5 4.75 12.5C3.75544 12.5 2.80161 12.1049 2.09835 11.4017C1.39509 10.6984 1 9.74456 1 8.75C1 7.13125 2.04 5.67938 3.5 5.15V6.87937C3.17678 7.09533 2.91503 7.39135 2.74025 7.73857C2.56547 8.08579 2.48363 8.47237 2.50271 8.86063C2.52179 9.24889 2.64113 9.62558 2.84911 9.95399C3.05708 10.2824 3.3466 10.5513 3.68943 10.7346C4.03226 10.9178 4.41672 11.0091 4.80533 10.9995C5.19394 10.99 5.57344 10.8799 5.90685 10.68C6.24026 10.4802 6.5162 10.1973 6.70778 9.85907C6.89936 9.52083 7.00004 9.13873 7 8.75V1H8.53125C8.6437 1.88068 9.04532 2.69911 9.6731 3.3269C10.3009 3.95468 11.1193 4.3563 12 4.46875V5.9775Z" fill="var(--fill-0, #0E121B)"/>
</svg>
