<svg preserveAspectRatio="none" width="100%" height="100%" overflow="visible" style="display: block;" viewBox="0 0 39 39" fill="none" xmlns="http://www.w3.org/2000/svg">
<path id="Vector" d="M19.5 0C15.6433 0 11.8731 1.14366 8.66639 3.28634C5.45963 5.42903 2.96027 8.47451 1.48436 12.0377C0.00844904 15.6008 -0.377716 19.5216 0.374696 23.3043C1.12711 27.0869 2.9843 30.5615 5.71143 33.2886C8.43855 36.0157 11.9131 37.8729 15.6957 38.6253C19.4784 39.3777 23.3992 38.9916 26.9623 37.5156C30.5255 36.0397 33.571 33.5404 35.7137 30.3336C37.8564 27.1269 39 23.3567 39 19.5C38.9945 14.33 36.9383 9.37322 33.2826 5.71745C29.6268 2.06167 24.6701 0.00545966 19.5 0ZM19.5 36C16.2366 36 13.0465 35.0323 10.3331 33.2192C7.61969 31.4062 5.50484 28.8293 4.256 25.8143C3.00715 22.7993 2.6804 19.4817 3.31705 16.281C3.95371 13.0803 5.52518 10.1403 7.83275 7.83274C10.1403 5.52517 13.0803 3.9537 16.281 3.31704C19.4817 2.68039 22.7993 3.00714 25.8143 4.25599C28.8293 5.50483 31.4062 7.61968 33.2193 10.3331C35.0323 13.0465 36 16.2366 36 19.5C35.995 23.8745 34.2551 28.0685 31.1618 31.1618C28.0685 34.2551 23.8746 35.995 19.5 36ZM13.5 19.5C13.5 20.7593 13.8962 21.9867 14.6326 23.0083C15.3689 24.0299 16.408 24.7939 17.6026 25.1921C18.7973 25.5903 20.087 25.6026 21.289 25.2271C22.491 24.8516 23.5444 24.1074 24.3 23.1C24.539 22.7817 24.8945 22.5714 25.2885 22.5153C25.6825 22.4593 26.0827 22.562 26.4009 22.8009C26.7192 23.0399 26.9295 23.3955 26.9856 23.7895C27.0417 24.1835 26.939 24.5836 26.7 24.9019C25.5664 26.4126 23.9862 27.5283 22.1832 28.0911C20.3803 28.654 18.446 28.6353 16.6543 28.0378C14.8625 27.4403 13.3042 26.2942 12.1999 24.7619C11.0956 23.2296 10.5014 21.3887 10.5014 19.5C10.5014 17.6113 11.0956 15.7704 12.1999 14.2381C13.3042 12.7058 14.8625 11.5597 16.6543 10.9622C18.446 10.3647 20.3803 10.346 22.1832 10.9089C23.9862 11.4717 25.5664 12.5874 26.7 14.0981C26.8183 14.2557 26.9044 14.4351 26.9534 14.6259C27.0024 14.8168 27.0134 15.0154 26.9856 15.2105C26.9578 15.4056 26.8919 15.5933 26.7916 15.7629C26.6913 15.9326 26.5585 16.0807 26.4009 16.1991C26.2434 16.3174 26.064 16.4035 25.8731 16.4525C25.6823 16.5015 25.4836 16.5124 25.2885 16.4846C25.0934 16.4569 24.9057 16.391 24.7361 16.2906C24.5665 16.1903 24.4183 16.0576 24.3 15.9C23.5444 14.8926 22.491 14.1484 21.289 13.7729C20.087 13.3974 18.7973 13.4097 17.6026 13.8079C16.408 14.2061 15.3689 14.9701 14.6326 15.9917C13.8962 17.0133 13.5 18.2407 13.5 19.5Z" fill="var(--fill-0, white)"/>
</svg>
