<svg preserveAspectRatio="none" width="100%" height="100%" overflow="visible" style="display: block;" viewBox="0 0 35.0014 35.0014" fill="none" xmlns="http://www.w3.org/2000/svg">
<path id="Vector" d="M34.6351 7.86632L27.1351 0.36632C27.0189 0.250182 26.8811 0.158057 26.7293 0.0952034C26.5776 0.0323501 26.4149 0 26.2507 0C26.0865 0 25.9238 0.0323501 25.7721 0.0952034C25.6203 0.158057 25.4825 0.250182 25.3663 0.36632C25.2502 0.482458 25.1581 0.620334 25.0952 0.772075C25.0324 0.923816 25 1.08645 25 1.2507C25 1.41494 25.0324 1.57757 25.0952 1.72932C25.1581 1.88106 25.2502 2.01893 25.3663 2.13507L28.2335 5.00069L23.7507 9.48351L18.3851 4.11632C18.1505 3.88177 17.8324 3.75 17.5007 3.75C17.169 3.75 16.8509 3.88177 16.6163 4.11632C16.3818 4.35087 16.25 4.66899 16.25 5.00069C16.25 5.3324 16.3818 5.65052 16.6163 5.88507L17.6085 6.87569L4.48351 20.0007C4.25035 20.232 4.0655 20.5073 3.93969 20.8107C3.81389 21.1141 3.74965 21.4395 3.75069 21.7679V29.4835L0.36632 32.8663C0.250182 32.9825 0.158057 33.1203 0.0952034 33.2721C0.0323501 33.4238 0 33.5865 0 33.7507C0 33.9149 0.0323501 34.0776 0.0952034 34.2293C0.158057 34.3811 0.250182 34.5189 0.36632 34.6351C0.600871 34.8696 0.91899 35.0014 1.2507 35.0014C1.41494 35.0014 1.57757 34.969 1.72932 34.9062C1.88106 34.8433 2.01893 34.7512 2.13507 34.6351L5.51788 31.2507H13.2335C13.5619 31.2517 13.8873 31.1875 14.1907 31.0617C14.494 30.9359 14.7694 30.751 15.0007 30.5179L28.1257 17.3929L29.1163 18.3851C29.2325 18.5012 29.3703 18.5933 29.5221 18.6562C29.6738 18.719 29.8365 18.7514 30.0007 18.7514C30.1649 18.7514 30.3276 18.719 30.4793 18.6562C30.6311 18.5933 30.7689 18.5012 30.8851 18.3851C31.0012 18.2689 31.0933 18.1311 31.1562 17.9793C31.219 17.8276 31.2514 17.6649 31.2514 17.5007C31.2514 17.3365 31.219 17.1738 31.1562 17.0221C31.0933 16.8703 31.0012 16.7325 30.8851 16.6163L25.5179 11.2507L30.0007 6.76788L32.8663 9.63507C33.1009 9.86962 33.419 10.0014 33.7507 10.0014C34.0824 10.0014 34.4005 9.86962 34.6351 9.63507C34.8696 9.40052 35.0014 9.0824 35.0014 8.75069C35.0014 8.41899 34.8696 8.10087 34.6351 7.86632ZM13.2335 28.7507H6.25069V21.7679L9.06319 18.9554L12.2413 22.1351C12.3575 22.2512 12.4953 22.3433 12.6471 22.4062C12.7988 22.469 12.9615 22.5014 13.1257 22.5014C13.2899 22.5014 13.4526 22.469 13.6043 22.4062C13.7561 22.3433 13.8939 22.2512 14.0101 22.1351C14.1262 22.0189 14.2183 21.8811 14.2812 21.7293C14.344 21.5776 14.3764 21.4149 14.3764 21.2507C14.3764 21.0865 14.344 20.9238 14.2812 20.7721C14.2183 20.6203 14.1262 20.4825 14.0101 20.3663L10.8304 17.1882L12.8132 15.2054L15.9913 18.3851C16.2259 18.6196 16.544 18.7514 16.8757 18.7514C17.2074 18.7514 17.5255 18.6196 17.7601 18.3851C17.9946 18.1505 18.1264 17.8324 18.1264 17.5007C18.1264 17.169 17.9946 16.8509 17.7601 16.6163L14.5804 13.4382L19.3757 8.64288L26.3585 15.6257L13.2335 28.7507Z" fill="var(--fill-0, #CACFD8)"/>
</svg>
