<svg preserveAspectRatio="none" width="100%" height="100%" overflow="visible" style="display: block;" viewBox="0 0 80 80" fill="none" xmlns="http://www.w3.org/2000/svg">
<g id="Logo" clip-path="url(#clip0_0_6)">
<path id="Vector" d="M37.9046 22.1452C37.1172 15.3975 36.2858 8.27288 36.2858 0H43.7142C43.7142 8.17996 42.8868 15.2955 42.1004 22.0508C41.4598 27.556 40.847 32.822 40.7332 38.23C44.4632 34.3394 47.726 30.214 51.144 25.8926C55.3582 20.5646 59.8086 14.9389 65.658 9.08928L70.9108 14.3421C65.1266 20.1262 59.5094 24.5722 54.1768 28.7932L54.1718 28.797C49.8282 32.2356 45.673 35.5248 41.77 39.2668C47.158 39.153 52.3822 38.5434 57.8544 37.9048C64.6022 37.1172 71.7272 36.2858 80 36.2858V43.7142C71.8204 43.7142 64.7048 42.8864 57.9498 42.1004L57.9448 42.1C52.4408 41.4596 47.1764 40.8472 41.77 40.7332C45.658 44.4604 49.7812 47.7218 54.0998 51.1374L54.1066 51.1432C59.4348 55.3578 65.0608 59.8078 70.9108 65.658L65.658 70.9108C59.8738 65.1268 55.428 59.51 51.2076 54.1778L51.1976 54.164L51.1892 54.153C47.755 49.8162 44.4698 45.6676 40.7332 41.77C40.847 47.178 41.4598 52.444 42.1004 57.9492C42.8868 64.7046 43.7142 71.82 43.7142 80H36.2858C36.2858 71.7272 37.1172 64.6026 37.9046 57.8548L37.9062 57.8438C38.544 52.3754 39.153 47.1544 39.2668 41.77C35.5302 45.6676 32.245 49.8162 28.8108 54.153L28.8024 54.164L28.7924 54.1778C24.572 59.51 20.1262 65.1268 14.3421 70.9108L9.08928 65.658C14.9392 59.8078 20.5652 55.3578 25.8934 51.1432L25.9002 51.1374C30.2188 47.7218 34.342 44.4604 38.23 40.7332C32.822 40.8474 27.5558 41.46 22.0502 42.1004C15.2952 42.8864 8.17968 43.7142 0 43.7142V36.2858C8.27288 36.2858 15.3979 37.1172 22.1456 37.9048C27.6178 38.5434 32.842 39.153 38.23 39.2668C34.3254 35.5234 30.1686 32.2332 25.8232 28.7932C20.4906 24.5722 14.8733 20.1262 9.08928 14.3421L14.3421 9.08928C20.1914 14.9389 24.6418 20.5646 28.856 25.8926C32.274 30.2138 35.5368 34.3392 39.2668 38.2296C39.153 32.8454 38.544 27.6246 37.9062 22.1562L37.9046 22.1452Z" fill="var(--fill-0, #12125C)"/>
</g>
<defs>
<clipPath id="clip0_0_6">
<rect width="80" height="80" fill="white"/>
</clipPath>
</defs>
</svg>
