<svg preserveAspectRatio="none" width="100%" height="100%" overflow="visible" style="display: block;" viewBox="0 0 32.4979 32.5" fill="none" xmlns="http://www.w3.org/2000/svg">
<path id="Vector" d="M28.125 20C28.125 20.3708 28.015 20.7334 27.809 21.0417C27.603 21.35 27.3101 21.5904 26.9675 21.7323C26.6249 21.8742 26.2479 21.9113 25.8842 21.839C25.5205 21.7666 25.1864 21.588 24.9242 21.3258C24.662 21.0636 24.4834 20.7295 24.411 20.3658C24.3387 20.0021 24.3758 19.6251 24.5177 19.2825C24.6596 18.9399 24.9 18.647 25.2083 18.441C25.5166 18.235 25.8792 18.125 26.25 18.125C26.7473 18.125 27.2242 18.3225 27.5758 18.6742C27.9275 19.0258 28.125 19.5027 28.125 20ZM27.4141 26.1391C27.1395 27.9091 26.2415 29.5228 24.8821 30.6891C23.5226 31.8555 21.7912 32.4977 20 32.5H16.25C14.2615 32.4979 12.3551 31.7071 10.949 30.301C9.54291 28.8949 8.75207 26.9885 8.75 25V18.6703C6.33364 18.3659 4.11144 17.1901 2.50041 15.3636C0.889394 13.5371 0.000305632 11.1855 0 8.75V1.25C0 0.918479 0.131696 0.600537 0.366117 0.366117C0.600537 0.131696 0.918479 0 1.25 0H5C5.33152 0 5.64946 0.131696 5.88388 0.366117C6.1183 0.600537 6.25 0.918479 6.25 1.25C6.25 1.58152 6.1183 1.89946 5.88388 2.13388C5.64946 2.3683 5.33152 2.5 5 2.5H2.5V8.75C2.49991 9.74339 2.69717 10.7269 3.08032 11.6434C3.46346 12.5599 4.02487 13.3912 4.73194 14.089C5.439 14.7867 6.27764 15.3371 7.19916 15.7081C8.12067 16.079 9.1067 16.2632 10.1 16.25C14.1797 16.1969 17.5 12.7734 17.5 8.62031V2.5H15C14.6685 2.5 14.3505 2.3683 14.1161 2.13388C13.8817 1.89946 13.75 1.58152 13.75 1.25C13.75 0.918479 13.8817 0.600537 14.1161 0.366117C14.3505 0.131696 14.6685 0 15 0H18.75C19.0815 0 19.3995 0.131696 19.6339 0.366117C19.8683 0.600537 20 0.918479 20 1.25V8.62031C20 13.7516 16.1672 18.0406 11.25 18.6687V25C11.25 26.3261 11.7768 27.5979 12.7145 28.5355C13.6521 29.4732 14.9239 30 16.25 30H20C21.1354 29.9981 22.2366 29.6106 23.1229 28.9008C24.0092 28.1911 24.6281 27.2013 24.8781 26.0938C23.3685 25.7547 22.0383 24.8676 21.1449 23.6044C20.2516 22.3411 19.8586 20.7913 20.0419 19.255C20.2253 17.7186 20.972 16.3049 22.1376 15.2874C23.3032 14.2698 24.8048 13.7208 26.3519 13.7466C27.8989 13.7723 29.3814 14.371 30.5125 15.4267C31.6436 16.4824 32.3429 17.9202 32.475 19.4618C32.6072 21.0034 32.1629 22.5392 31.228 23.7721C30.2931 25.005 28.9341 25.8472 27.4141 26.1359V26.1391ZM30 20C30 19.2583 29.7801 18.5333 29.368 17.9166C28.956 17.2999 28.3703 16.8193 27.6851 16.5355C26.9998 16.2516 26.2458 16.1774 25.5184 16.3221C24.791 16.4667 24.1228 16.8239 23.5983 17.3483C23.0739 17.8728 22.7167 18.541 22.5721 19.2684C22.4274 19.9958 22.5016 20.7498 22.7855 21.4351C23.0693 22.1203 23.5499 22.706 24.1666 23.118C24.7833 23.5301 25.5083 23.75 26.25 23.75C27.2446 23.75 28.1984 23.3549 28.9017 22.6517C29.6049 21.9484 30 20.9946 30 20Z" fill="var(--fill-0, #050515)"/>
</svg>
