<svg preserveAspectRatio="none" width="100%" height="100%" overflow="visible" style="display: block;" viewBox="0 0 35 29.9992" fill="none" xmlns="http://www.w3.org/2000/svg">
<path id="Vector" d="M8.75 16.25H2.5C2.16848 16.25 1.85054 16.1183 1.61612 15.8839C1.3817 15.6495 1.25 15.3315 1.25 15C1.25 14.6685 1.3817 14.3505 1.61612 14.1161C1.85054 13.8817 2.16848 13.75 2.5 13.75H8.08125L10.2094 10.5562C10.3235 10.3848 10.4782 10.2442 10.6597 10.1469C10.8413 10.0497 11.044 9.99878 11.25 9.99878C11.456 9.99878 11.6587 10.0497 11.8403 10.1469C12.0218 10.2442 12.1765 10.3848 12.2906 10.5562L16.25 16.4937L17.7094 14.3062C17.8236 14.135 17.9784 13.9946 18.1599 13.8976C18.3415 13.8006 18.5442 13.7499 18.75 13.75H22.5C22.8315 13.75 23.1495 13.8817 23.3839 14.1161C23.6183 14.3505 23.75 14.6685 23.75 15C23.75 15.3315 23.6183 15.6495 23.3839 15.8839C23.1495 16.1183 22.8315 16.25 22.5 16.25H19.4187L17.2906 19.4438C17.1765 19.6152 17.0218 19.7558 16.8403 19.8531C16.6587 19.9503 16.456 20.0012 16.25 20.0012C16.044 20.0012 15.8413 19.9503 15.6597 19.8531C15.4782 19.7558 15.3235 19.6152 15.2094 19.4438L11.25 13.5031L9.79063 15.6906C9.67674 15.8624 9.52213 16.0034 9.34057 16.101C9.15901 16.1986 8.95613 16.2498 8.75 16.25ZM25.3125 0C22.0859 0 19.2609 1.3875 17.5 3.73281C15.7391 1.3875 12.9141 0 9.6875 0C7.1191 0.0028949 4.65673 1.02447 2.8406 2.8406C1.02447 4.65673 0.0028949 7.1191 0 9.6875C0 9.80469 0 9.92188 0 10.0391C0.01036 10.3706 0.151992 10.6844 0.393738 10.9115C0.635484 11.1386 0.957542 11.2604 1.28906 11.25C1.62058 11.2396 1.93441 11.098 2.1615 10.8563C2.3886 10.6145 2.51036 10.2925 2.5 9.96094C2.5 9.87031 2.5 9.77812 2.5 9.6875C2.50248 7.78202 3.26053 5.95529 4.60791 4.60791C5.95529 3.26053 7.78202 2.50248 9.6875 2.5C12.7266 2.5 15.2781 4.11875 16.3437 6.71875C16.4379 6.94801 16.5981 7.1441 16.804 7.28211C17.0099 7.42011 17.2521 7.49379 17.5 7.49379C17.7479 7.49379 17.9901 7.42011 18.196 7.28211C18.4019 7.1441 18.5621 6.94801 18.6562 6.71875C19.7219 4.11406 22.2734 2.5 25.3125 2.5C27.218 2.50248 29.0447 3.26053 30.3921 4.60791C31.7395 5.95529 32.4975 7.78202 32.5 9.6875C32.5 18.0641 20.35 25.6484 17.5 27.3125C15.8078 26.3266 10.8391 23.25 7.08125 19.1547C6.97024 19.0336 6.83648 18.9356 6.68759 18.8662C6.5387 18.7969 6.37761 18.7575 6.21351 18.7504C6.04941 18.7433 5.88552 18.7686 5.73119 18.8248C5.57687 18.881 5.43512 18.9671 5.31406 19.0781C5.193 19.1891 5.09499 19.3229 5.02562 19.4718C4.95626 19.6207 4.91689 19.7818 4.90978 19.9459C4.90268 20.11 4.92796 20.2739 4.98419 20.4282C5.04042 20.5825 5.12649 20.7243 5.2375 20.8453C10.1078 26.1578 16.6328 29.7016 16.9078 29.85C17.0898 29.9479 17.2933 29.9992 17.5 29.9992C17.7067 29.9992 17.9102 29.9479 18.0922 29.85C18.7828 29.4781 35 20.625 35 9.6875C34.9971 7.1191 33.9755 4.65673 32.1594 2.8406C30.3433 1.02447 27.8809 0.0028949 25.3125 0Z" fill="var(--fill-0, #CACFD8)"/>
</svg>
