<svg preserveAspectRatio="none" width="100%" height="100%" overflow="visible" style="display: block;" viewBox="0 0 9.37542 6.7505" fill="none" xmlns="http://www.w3.org/2000/svg">
<g id="Vector">
<mask id="path-1-inside-1_0_21" fill="white">
<path d="M9.26552 0.640521L3.26552 6.64052C3.23069 6.67539 3.18934 6.70305 3.14381 6.72192C3.09829 6.74079 3.04949 6.7505 3.00021 6.7505C2.95093 6.7505 2.90213 6.74079 2.85661 6.72192C2.81108 6.70305 2.76972 6.67539 2.7349 6.64052L0.109896 4.01552C0.0395308 3.94516 0 3.84972 0 3.75021C0 3.6507 0.0395308 3.55526 0.109896 3.4849C0.180261 3.41453 0.275697 3.375 0.375208 3.375C0.47472 3.375 0.570156 3.41453 0.640521 3.4849L3.00021 5.84505L8.7349 0.109896C8.80526 0.0395306 8.9007 -7.41418e-10 9.00021 0C9.09972 7.41419e-10 9.19516 0.0395306 9.26552 0.109896C9.33589 0.180261 9.37542 0.275697 9.37542 0.375208C9.37542 0.47472 9.33589 0.570156 9.26552 0.640521Z"/>
</mask>
<path d="M9.26552 0.640521L3.26552 6.64052C3.23069 6.67539 3.18934 6.70305 3.14381 6.72192C3.09829 6.74079 3.04949 6.7505 3.00021 6.7505C2.95093 6.7505 2.90213 6.74079 2.85661 6.72192C2.81108 6.70305 2.76972 6.67539 2.7349 6.64052L0.109896 4.01552C0.0395308 3.94516 0 3.84972 0 3.75021C0 3.6507 0.0395308 3.55526 0.109896 3.4849C0.180261 3.41453 0.275697 3.375 0.375208 3.375C0.47472 3.375 0.570156 3.41453 0.640521 3.4849L3.00021 5.84505L8.7349 0.109896C8.80526 0.0395306 8.9007 -7.41418e-10 9.00021 0C9.09972 7.41419e-10 9.19516 0.0395306 9.26552 0.109896C9.33589 0.180261 9.37542 0.275697 9.37542 0.375208C9.37542 0.47472 9.33589 0.570156 9.26552 0.640521Z" fill="var(--fill-0, white)"/>
<path d="M3.26552 6.64052L2.55841 5.93341L2.55802 5.93381L3.26552 6.64052ZM2.7349 6.64052L3.4424 5.93381L3.442 5.93341L2.7349 6.64052ZM0.109896 4.01552L0.817003 3.30841H0.817003L0.109896 4.01552ZM0 3.75021H1H0ZM0.640521 3.4849L1.3477 2.77786L1.34763 2.77779L0.640521 3.4849ZM3.00021 5.84505L2.29303 6.55209L3.00017 7.25937L3.70734 6.55213L3.00021 5.84505ZM8.7349 0.109896L8.02779 -0.597211L8.02776 -0.597182L8.7349 0.109896ZM9.00021 0V-1V0ZM9.26552 0.640521L8.55841 -0.0665856L2.55841 5.93341L3.26552 6.64052L3.97263 7.34763L9.97263 1.34763L9.26552 0.640521ZM3.26552 6.64052L2.55802 5.93381C2.61607 5.8757 2.685 5.8296 2.76087 5.79815L3.14381 6.72192L3.52675 7.64569C3.69367 7.5765 3.84532 7.47508 3.97302 7.34723L3.26552 6.64052ZM3.14381 6.72192L2.76087 5.79815C2.83675 5.76669 2.91808 5.7505 3.00021 5.7505V6.7505V7.7505C3.1809 7.7505 3.35982 7.71489 3.52675 7.64569L3.14381 6.72192ZM3.00021 6.7505V5.7505C3.08233 5.7505 3.16366 5.76669 3.23955 5.79815L2.85661 6.72192L2.47367 7.64569C2.6406 7.71489 2.81952 7.7505 3.00021 7.7505V6.7505ZM2.85661 6.72192L3.23955 5.79815C3.31542 5.8296 3.38435 5.8757 3.4424 5.93381L2.7349 6.64052L2.0274 7.34723C2.1551 7.47508 2.30674 7.5765 2.47367 7.64569L2.85661 6.72192ZM2.7349 6.64052L3.442 5.93341L0.817003 3.30841L0.109896 4.01552L-0.597211 4.72263L2.02779 7.34763L2.7349 6.64052ZM0.109896 4.01552L0.817003 3.30841C0.934174 3.42559 1 3.5845 1 3.75021L0 3.75021H-1C-1 4.11494 -0.855113 4.46473 -0.597211 4.72263L0.109896 4.01552ZM0 3.75021H1C1 3.91591 0.934174 4.07483 0.817003 4.192L0.109896 3.4849L-0.597211 2.77779C-0.855113 3.03569 -1 3.38548 -1 3.75021H0ZM0.109896 3.4849L0.817003 4.192C0.699832 4.30917 0.540915 4.375 0.375208 4.375V3.375V2.375C0.0104795 2.375 -0.33931 2.51989 -0.597211 2.77779L0.109896 3.4849ZM0.375208 3.375V4.375C0.209502 4.375 0.0505846 4.30917 -0.0665858 4.192L0.640521 3.4849L1.34763 2.77779C1.08973 2.51989 0.739937 2.375 0.375208 2.375V3.375ZM0.640521 3.4849L-0.0666561 4.19193L2.29303 6.55209L3.00021 5.84505L3.70739 5.13802L1.3477 2.77786L0.640521 3.4849ZM3.00021 5.84505L3.70734 6.55213L9.44203 0.816974L8.7349 0.109896L8.02776 -0.597182L2.29307 5.13797L3.00021 5.84505ZM8.7349 0.109896L9.442 0.817003C9.32483 0.934175 9.16591 1 9.00021 1V0V-1C8.63548 -1 8.28569 -0.855114 8.02779 -0.597211L8.7349 0.109896ZM9.00021 0V1C8.83451 1 8.67559 0.934175 8.55841 0.817003L9.26552 0.109896L9.97263 -0.597211C9.71473 -0.855114 9.36493 -1 9.00021 -1V0ZM9.26552 0.109896L8.55841 0.817003C8.44124 0.699832 8.37542 0.540914 8.37542 0.375208H9.37542H10.3754C10.3754 0.01048 10.2305 -0.33931 9.97263 -0.597211L9.26552 0.109896ZM9.37542 0.375208H8.37542C8.37542 0.209503 8.44124 0.0505852 8.55841 -0.0665856L9.26552 0.640521L9.97263 1.34763C10.2305 1.08973 10.3754 0.739937 10.3754 0.375208H9.37542Z" fill="var(--stroke-0, #3131D8)" mask="url(#path-1-inside-1_0_21)"/>
</g>
</svg>
