<svg preserveAspectRatio="none" width="100%" height="100%" overflow="visible" style="display: block;" viewBox="0 0 16 16" fill="none" xmlns="http://www.w3.org/2000/svg">
<g id="Logo" clip-path="url(#clip0_0_246)">
<path id="Vector" d="M7.58092 4.42904C7.42344 3.07949 7.25716 1.65458 7.25716 0H8.74284C8.74284 1.63599 8.57736 3.0591 8.42008 4.41016C8.29196 5.5112 8.1694 6.5644 8.14664 7.646C8.89264 6.86788 9.5452 6.0428 10.2288 5.17852C11.0716 4.11292 11.9617 2.98778 13.1316 1.81786L14.1822 2.86842C13.0253 4.02524 11.9019 4.91444 10.8354 5.75864L10.8344 5.7594C9.96564 6.44712 9.1346 7.10496 8.354 7.85336C9.4316 7.8306 10.4764 7.70868 11.5709 7.58096C12.9204 7.42344 14.3454 7.25716 16 7.25716V8.74284C14.3641 8.74284 12.941 8.57728 11.59 8.42008L11.589 8.42C10.4882 8.29192 9.43528 8.16944 8.354 8.14664C9.1316 8.89208 9.95624 9.54436 10.82 10.2275L10.8213 10.2286C11.887 11.0716 13.0122 11.9616 14.1822 13.1316L13.1316 14.1822C11.9748 13.0254 11.0856 11.902 10.2415 10.8356L10.2395 10.8328L10.2378 10.8306C9.551 9.96324 8.89396 9.13352 8.14664 8.354C8.1694 9.4356 8.29196 10.4888 8.42008 11.5898C8.57736 12.9409 8.74284 14.364 8.74284 16H7.25716C7.25716 14.3454 7.42344 12.9205 7.58092 11.571L7.58124 11.5688C7.7088 10.4751 7.8306 9.43088 7.85336 8.354C7.10604 9.13352 6.449 9.96324 5.76216 10.8306L5.76048 10.8328L5.75848 10.8356C4.9144 11.902 4.02524 13.0254 2.86842 14.1822L1.81786 13.1316C2.98784 11.9616 4.11304 11.0716 5.17868 10.2286L5.18004 10.2275C6.04376 9.54436 6.8684 8.89208 7.646 8.14664C6.5644 8.16948 5.51116 8.292 4.41004 8.42008C3.05904 8.57728 1.63594 8.74284 0 8.74284V7.25716C1.65458 7.25716 3.07958 7.42344 4.42912 7.58096C5.52356 7.70868 6.5684 7.8306 7.646 7.85336C6.86508 7.10468 6.03372 6.44664 5.16464 5.75864C4.09812 4.91444 2.97466 4.02524 1.81786 2.86842L2.86842 1.81786C4.03828 2.98778 4.92836 4.11292 5.7712 5.17852C6.4548 6.04276 7.10736 6.86784 7.85336 7.64592C7.8306 6.56908 7.7088 5.52492 7.58124 4.43124L7.58092 4.42904Z" fill="var(--fill-0, #0E121B)"/>
</g>
<defs>
<clipPath id="clip0_0_246">
<rect width="16" height="16" fill="white"/>
</clipPath>
</defs>
</svg>
